<mxfile host="app.diagrams.net" agent="Mozilla/5.0 (Windows NT 10.0; Win64; x64) AppleWebKit/537.36 (KHTML, like Gecko) Chrome/130.0.0.0 Safari/537.36 Edg/130.0.0.0" version="24.8.4">
  <diagram id="C5RBs43oDa-KdzZeNtuy" name="Page-1">
    <mxGraphModel dx="1426" dy="791" grid="1" gridSize="10" guides="1" tooltips="1" connect="1" arrows="1" fold="1" page="1" pageScale="1" pageWidth="827" pageHeight="1169" math="0" shadow="0">
      <root>
        <mxCell id="WIyWlLk6GJQsqaUBKTNV-0" />
        <mxCell id="WIyWlLk6GJQsqaUBKTNV-1" parent="WIyWlLk6GJQsqaUBKTNV-0" />
        <object label="Location" address="" id="0VNFJHsK7VzZ3nX6VxYS-0">
          <mxCell style="swimlane;fontStyle=0;childLayout=stackLayout;horizontal=1;startSize=26;fillColor=none;horizontalStack=0;resizeParent=1;resizeParentMax=0;resizeLast=0;collapsible=1;marginBottom=0;whiteSpace=wrap;html=1;" parent="WIyWlLk6GJQsqaUBKTNV-1" vertex="1">
            <mxGeometry x="340" y="350" width="140" height="140" as="geometry" />
          </mxCell>
        </object>
        <mxCell id="0VNFJHsK7VzZ3nX6VxYS-1" value="city" style="text;strokeColor=none;fillColor=none;align=left;verticalAlign=top;spacingLeft=4;spacingRight=4;overflow=hidden;rotatable=0;points=[[0,0.5],[1,0.5]];portConstraint=eastwest;whiteSpace=wrap;html=1;" parent="0VNFJHsK7VzZ3nX6VxYS-0" vertex="1">
          <mxGeometry y="26" width="140" height="26" as="geometry" />
        </mxCell>
        <mxCell id="0VNFJHsK7VzZ3nX6VxYS-2" value="province&lt;div&gt;&lt;br&gt;&lt;/div&gt;&lt;div&gt;address&lt;/div&gt;&lt;div&gt;&lt;br&gt;&lt;/div&gt;&lt;div&gt;space_type&lt;/div&gt;&lt;div&gt;&lt;div&gt;&lt;br&gt;&lt;/div&gt;&lt;/div&gt;" style="text;strokeColor=none;fillColor=none;align=left;verticalAlign=top;spacingLeft=4;spacingRight=4;overflow=hidden;rotatable=0;points=[[0,0.5],[1,0.5]];portConstraint=eastwest;whiteSpace=wrap;html=1;" parent="0VNFJHsK7VzZ3nX6VxYS-0" vertex="1">
          <mxGeometry y="52" width="140" height="88" as="geometry" />
        </mxCell>
        <mxCell id="0VNFJHsK7VzZ3nX6VxYS-4" value="Schedule" style="swimlane;fontStyle=0;childLayout=stackLayout;horizontal=1;startSize=26;fillColor=none;horizontalStack=0;resizeParent=1;resizeParentMax=0;resizeLast=0;collapsible=1;marginBottom=0;whiteSpace=wrap;html=1;" parent="WIyWlLk6GJQsqaUBKTNV-1" vertex="1">
          <mxGeometry x="340" y="140" width="140" height="80" as="geometry" />
        </mxCell>
        <mxCell id="0VNFJHsK7VzZ3nX6VxYS-5" value="start_date" style="text;strokeColor=none;fillColor=none;align=left;verticalAlign=top;spacingLeft=4;spacingRight=4;overflow=hidden;rotatable=0;points=[[0,0.5],[1,0.5]];portConstraint=eastwest;whiteSpace=wrap;html=1;" parent="0VNFJHsK7VzZ3nX6VxYS-4" vertex="1">
          <mxGeometry y="26" width="140" height="26" as="geometry" />
        </mxCell>
        <mxCell id="0VNFJHsK7VzZ3nX6VxYS-6" value="end_date" style="text;strokeColor=none;fillColor=none;align=left;verticalAlign=top;spacingLeft=4;spacingRight=4;overflow=hidden;rotatable=0;points=[[0,0.5],[1,0.5]];portConstraint=eastwest;whiteSpace=wrap;html=1;" parent="0VNFJHsK7VzZ3nX6VxYS-4" vertex="1">
          <mxGeometry y="52" width="140" height="26" as="geometry" />
        </mxCell>
        <mxCell id="0VNFJHsK7VzZ3nX6VxYS-7" value="+ field: type" style="text;strokeColor=none;fillColor=none;align=left;verticalAlign=top;spacingLeft=4;spacingRight=4;overflow=hidden;rotatable=0;points=[[0,0.5],[1,0.5]];portConstraint=eastwest;whiteSpace=wrap;html=1;" parent="0VNFJHsK7VzZ3nX6VxYS-4" vertex="1">
          <mxGeometry y="78" width="140" height="2" as="geometry" />
        </mxCell>
        <mxCell id="0VNFJHsK7VzZ3nX6VxYS-8" value="" style="endArrow=none;html=1;rounded=0;exitX=0.5;exitY=0;exitDx=0;exitDy=0;entryX=0.5;entryY=1.154;entryDx=0;entryDy=0;entryPerimeter=0;" parent="WIyWlLk6GJQsqaUBKTNV-1" source="0VNFJHsK7VzZ3nX6VxYS-0" target="0VNFJHsK7VzZ3nX6VxYS-7" edge="1">
          <mxGeometry width="50" height="50" relative="1" as="geometry">
            <mxPoint x="410" y="340" as="sourcePoint" />
            <mxPoint x="410" y="260" as="targetPoint" />
          </mxGeometry>
        </mxCell>
        <mxCell id="0VNFJHsK7VzZ3nX6VxYS-11" value="DailySchedule" style="swimlane;fontStyle=0;childLayout=stackLayout;horizontal=1;startSize=26;fillColor=none;horizontalStack=0;resizeParent=1;resizeParentMax=0;resizeLast=0;collapsible=1;marginBottom=0;whiteSpace=wrap;html=1;" parent="WIyWlLk6GJQsqaUBKTNV-1" vertex="1">
          <mxGeometry x="860" y="95" width="140" height="56" as="geometry" />
        </mxCell>
        <mxCell id="0VNFJHsK7VzZ3nX6VxYS-12" value="week_day" style="text;strokeColor=none;fillColor=none;align=left;verticalAlign=top;spacingLeft=4;spacingRight=4;overflow=hidden;rotatable=0;points=[[0,0.5],[1,0.5]];portConstraint=eastwest;whiteSpace=wrap;html=1;" parent="0VNFJHsK7VzZ3nX6VxYS-11" vertex="1">
          <mxGeometry y="26" width="140" height="26" as="geometry" />
        </mxCell>
        <mxCell id="0VNFJHsK7VzZ3nX6VxYS-13" value="+ field: type" style="text;strokeColor=none;fillColor=none;align=left;verticalAlign=top;spacingLeft=4;spacingRight=4;overflow=hidden;rotatable=0;points=[[0,0.5],[1,0.5]];portConstraint=eastwest;whiteSpace=wrap;html=1;" parent="0VNFJHsK7VzZ3nX6VxYS-11" vertex="1">
          <mxGeometry y="52" width="140" height="2" as="geometry" />
        </mxCell>
        <mxCell id="0VNFJHsK7VzZ3nX6VxYS-14" value="+ field: type" style="text;strokeColor=none;fillColor=none;align=left;verticalAlign=top;spacingLeft=4;spacingRight=4;overflow=hidden;rotatable=0;points=[[0,0.5],[1,0.5]];portConstraint=eastwest;whiteSpace=wrap;html=1;" parent="0VNFJHsK7VzZ3nX6VxYS-11" vertex="1">
          <mxGeometry y="54" width="140" height="2" as="geometry" />
        </mxCell>
        <mxCell id="0VNFJHsK7VzZ3nX6VxYS-17" value="1..7" style="text;html=1;align=center;verticalAlign=middle;resizable=0;points=[];autosize=1;strokeColor=none;fillColor=none;" parent="WIyWlLk6GJQsqaUBKTNV-1" vertex="1">
          <mxGeometry x="810" y="110" width="40" height="30" as="geometry" />
        </mxCell>
        <mxCell id="0VNFJHsK7VzZ3nX6VxYS-18" value="TimeSlot" style="swimlane;fontStyle=0;childLayout=stackLayout;horizontal=1;startSize=26;fillColor=none;horizontalStack=0;resizeParent=1;resizeParentMax=0;resizeLast=0;collapsible=1;marginBottom=0;whiteSpace=wrap;html=1;" parent="WIyWlLk6GJQsqaUBKTNV-1" vertex="1">
          <mxGeometry x="630" y="270" width="140" height="82" as="geometry" />
        </mxCell>
        <mxCell id="0VNFJHsK7VzZ3nX6VxYS-19" value="start_time" style="text;strokeColor=none;fillColor=none;align=left;verticalAlign=top;spacingLeft=4;spacingRight=4;overflow=hidden;rotatable=0;points=[[0,0.5],[1,0.5]];portConstraint=eastwest;whiteSpace=wrap;html=1;" parent="0VNFJHsK7VzZ3nX6VxYS-18" vertex="1">
          <mxGeometry y="26" width="140" height="26" as="geometry" />
        </mxCell>
        <mxCell id="0VNFJHsK7VzZ3nX6VxYS-20" value="end_time" style="text;strokeColor=none;fillColor=none;align=left;verticalAlign=top;spacingLeft=4;spacingRight=4;overflow=hidden;rotatable=0;points=[[0,0.5],[1,0.5]];portConstraint=eastwest;whiteSpace=wrap;html=1;" parent="0VNFJHsK7VzZ3nX6VxYS-18" vertex="1">
          <mxGeometry y="52" width="140" height="28" as="geometry" />
        </mxCell>
        <mxCell id="0VNFJHsK7VzZ3nX6VxYS-21" value="+ field: type" style="text;strokeColor=none;fillColor=none;align=left;verticalAlign=top;spacingLeft=4;spacingRight=4;overflow=hidden;rotatable=0;points=[[0,0.5],[1,0.5]];portConstraint=eastwest;whiteSpace=wrap;html=1;" parent="0VNFJHsK7VzZ3nX6VxYS-18" vertex="1">
          <mxGeometry y="80" width="140" height="2" as="geometry" />
        </mxCell>
        <mxCell id="0VNFJHsK7VzZ3nX6VxYS-24" value="0..*" style="text;html=1;align=center;verticalAlign=middle;resizable=0;points=[];autosize=1;strokeColor=none;fillColor=none;" parent="WIyWlLk6GJQsqaUBKTNV-1" vertex="1">
          <mxGeometry x="610" y="240" width="40" height="30" as="geometry" />
        </mxCell>
        <mxCell id="0VNFJHsK7VzZ3nX6VxYS-25" value="ScheduleDB" style="swimlane;fontStyle=0;childLayout=stackLayout;horizontal=1;startSize=26;fillColor=none;horizontalStack=0;resizeParent=1;resizeParentMax=0;resizeLast=0;collapsible=1;marginBottom=0;whiteSpace=wrap;html=1;" parent="WIyWlLk6GJQsqaUBKTNV-1" vertex="1">
          <mxGeometry x="50" y="140" width="140" height="52" as="geometry" />
        </mxCell>
        <mxCell id="0VNFJHsK7VzZ3nX6VxYS-29" value="" style="endArrow=diamondThin;endFill=1;endSize=24;html=1;rounded=0;entryX=1;entryY=0.75;entryDx=0;entryDy=0;" parent="WIyWlLk6GJQsqaUBKTNV-1" target="0VNFJHsK7VzZ3nX6VxYS-25" edge="1">
          <mxGeometry width="160" relative="1" as="geometry">
            <mxPoint x="330" y="179.5" as="sourcePoint" />
            <mxPoint x="260" y="180" as="targetPoint" />
            <Array as="points">
              <mxPoint x="340" y="180" />
            </Array>
          </mxGeometry>
        </mxCell>
        <mxCell id="0VNFJHsK7VzZ3nX6VxYS-30" value="&lt;font style=&quot;font-size: 14px;&quot;&gt;*&lt;/font&gt;" style="text;html=1;align=center;verticalAlign=middle;resizable=0;points=[];autosize=1;strokeColor=none;fillColor=none;" parent="WIyWlLk6GJQsqaUBKTNV-1" vertex="1">
          <mxGeometry x="310" y="151" width="30" height="30" as="geometry" />
        </mxCell>
        <mxCell id="0VNFJHsK7VzZ3nX6VxYS-33" value="Offering" style="swimlane;fontStyle=0;childLayout=stackLayout;horizontal=1;startSize=26;fillColor=none;horizontalStack=0;resizeParent=1;resizeParentMax=0;resizeLast=0;collapsible=1;marginBottom=0;whiteSpace=wrap;html=1;" parent="WIyWlLk6GJQsqaUBKTNV-1" vertex="1">
          <mxGeometry x="630" y="430" width="140" height="104" as="geometry" />
        </mxCell>
        <mxCell id="0VNFJHsK7VzZ3nX6VxYS-34" value="lesson_type" style="text;strokeColor=none;fillColor=none;align=left;verticalAlign=top;spacingLeft=4;spacingRight=4;overflow=hidden;rotatable=0;points=[[0,0.5],[1,0.5]];portConstraint=eastwest;whiteSpace=wrap;html=1;" parent="0VNFJHsK7VzZ3nX6VxYS-33" vertex="1">
          <mxGeometry y="26" width="140" height="26" as="geometry" />
        </mxCell>
        <mxCell id="0VNFJHsK7VzZ3nX6VxYS-35" value="mode" style="text;strokeColor=none;fillColor=none;align=left;verticalAlign=top;spacingLeft=4;spacingRight=4;overflow=hidden;rotatable=0;points=[[0,0.5],[1,0.5]];portConstraint=eastwest;whiteSpace=wrap;html=1;" parent="0VNFJHsK7VzZ3nX6VxYS-33" vertex="1">
          <mxGeometry y="52" width="140" height="26" as="geometry" />
        </mxCell>
        <mxCell id="0VNFJHsK7VzZ3nX6VxYS-36" value="status" style="text;strokeColor=none;fillColor=none;align=left;verticalAlign=top;spacingLeft=4;spacingRight=4;overflow=hidden;rotatable=0;points=[[0,0.5],[1,0.5]];portConstraint=eastwest;whiteSpace=wrap;html=1;" parent="0VNFJHsK7VzZ3nX6VxYS-33" vertex="1">
          <mxGeometry y="78" width="140" height="26" as="geometry" />
        </mxCell>
        <mxCell id="0VNFJHsK7VzZ3nX6VxYS-37" value="" style="endArrow=none;html=1;rounded=0;entryX=0.486;entryY=1.5;entryDx=0;entryDy=0;entryPerimeter=0;exitX=0.5;exitY=0;exitDx=0;exitDy=0;" parent="WIyWlLk6GJQsqaUBKTNV-1" source="0VNFJHsK7VzZ3nX6VxYS-33" target="0VNFJHsK7VzZ3nX6VxYS-21" edge="1">
          <mxGeometry width="50" height="50" relative="1" as="geometry">
            <mxPoint x="700" y="410" as="sourcePoint" />
            <mxPoint x="700" y="370" as="targetPoint" />
          </mxGeometry>
        </mxCell>
        <mxCell id="0VNFJHsK7VzZ3nX6VxYS-38" value="0..1" style="text;html=1;align=center;verticalAlign=middle;resizable=0;points=[];autosize=1;strokeColor=none;fillColor=none;" parent="WIyWlLk6GJQsqaUBKTNV-1" vertex="1">
          <mxGeometry x="700" y="405" width="40" height="30" as="geometry" />
        </mxCell>
        <mxCell id="0VNFJHsK7VzZ3nX6VxYS-39" value="" style="endArrow=none;html=1;rounded=0;entryX=0;entryY=0.5;entryDx=0;entryDy=0;exitX=1;exitY=0.5;exitDx=0;exitDy=0;" parent="WIyWlLk6GJQsqaUBKTNV-1" source="0VNFJHsK7VzZ3nX6VxYS-2" target="0VNFJHsK7VzZ3nX6VxYS-34" edge="1">
          <mxGeometry width="50" height="50" relative="1" as="geometry">
            <mxPoint x="500" y="472" as="sourcePoint" />
            <mxPoint x="600" y="470" as="targetPoint" />
          </mxGeometry>
        </mxCell>
        <mxCell id="0VNFJHsK7VzZ3nX6VxYS-40" value="User" style="swimlane;fontStyle=0;childLayout=stackLayout;horizontal=1;startSize=26;fillColor=none;horizontalStack=0;resizeParent=1;resizeParentMax=0;resizeLast=0;collapsible=1;marginBottom=0;whiteSpace=wrap;html=1;" parent="WIyWlLk6GJQsqaUBKTNV-1" vertex="1">
          <mxGeometry x="827" y="820" width="140" height="156" as="geometry">
            <mxRectangle x="340" y="790" width="70" height="30" as="alternateBounds" />
          </mxGeometry>
        </mxCell>
        <mxCell id="0VNFJHsK7VzZ3nX6VxYS-41" value="username" style="text;strokeColor=none;fillColor=none;align=left;verticalAlign=top;spacingLeft=4;spacingRight=4;overflow=hidden;rotatable=0;points=[[0,0.5],[1,0.5]];portConstraint=eastwest;whiteSpace=wrap;html=1;" parent="0VNFJHsK7VzZ3nX6VxYS-40" vertex="1">
          <mxGeometry y="26" width="140" height="26" as="geometry" />
        </mxCell>
        <mxCell id="0VNFJHsK7VzZ3nX6VxYS-42" value="password" style="text;strokeColor=none;fillColor=none;align=left;verticalAlign=top;spacingLeft=4;spacingRight=4;overflow=hidden;rotatable=0;points=[[0,0.5],[1,0.5]];portConstraint=eastwest;whiteSpace=wrap;html=1;" parent="0VNFJHsK7VzZ3nX6VxYS-40" vertex="1">
          <mxGeometry y="52" width="140" height="26" as="geometry" />
        </mxCell>
        <mxCell id="0VNFJHsK7VzZ3nX6VxYS-50" value="name" style="text;strokeColor=none;fillColor=none;align=left;verticalAlign=top;spacingLeft=4;spacingRight=4;overflow=hidden;rotatable=0;points=[[0,0.5],[1,0.5]];portConstraint=eastwest;whiteSpace=wrap;html=1;" parent="0VNFJHsK7VzZ3nX6VxYS-40" vertex="1">
          <mxGeometry y="78" width="140" height="26" as="geometry" />
        </mxCell>
        <mxCell id="0VNFJHsK7VzZ3nX6VxYS-52" value="phone_number" style="text;strokeColor=none;fillColor=none;align=left;verticalAlign=top;spacingLeft=4;spacingRight=4;overflow=hidden;rotatable=0;points=[[0,0.5],[1,0.5]];portConstraint=eastwest;whiteSpace=wrap;html=1;" parent="0VNFJHsK7VzZ3nX6VxYS-40" vertex="1">
          <mxGeometry y="104" width="140" height="26" as="geometry" />
        </mxCell>
        <mxCell id="0VNFJHsK7VzZ3nX6VxYS-51" value="age" style="text;strokeColor=none;fillColor=none;align=left;verticalAlign=top;spacingLeft=4;spacingRight=4;overflow=hidden;rotatable=0;points=[[0,0.5],[1,0.5]];portConstraint=eastwest;whiteSpace=wrap;html=1;" parent="0VNFJHsK7VzZ3nX6VxYS-40" vertex="1">
          <mxGeometry y="130" width="140" height="26" as="geometry" />
        </mxCell>
        <mxCell id="0VNFJHsK7VzZ3nX6VxYS-53" value="" style="endArrow=block;endSize=16;endFill=0;html=1;rounded=0;entryX=0.5;entryY=0;entryDx=0;entryDy=0;exitX=0.5;exitY=1;exitDx=0;exitDy=0;" parent="WIyWlLk6GJQsqaUBKTNV-1" source="0VNFJHsK7VzZ3nX6VxYS-54" target="0VNFJHsK7VzZ3nX6VxYS-40" edge="1">
          <mxGeometry width="160" relative="1" as="geometry">
            <mxPoint x="897" y="690" as="sourcePoint" />
            <mxPoint x="896.5" y="790" as="targetPoint" />
          </mxGeometry>
        </mxCell>
        <mxCell id="0VNFJHsK7VzZ3nX6VxYS-54" value="Client" style="swimlane;fontStyle=0;childLayout=stackLayout;horizontal=1;startSize=26;fillColor=none;horizontalStack=0;resizeParent=1;resizeParentMax=0;resizeLast=0;collapsible=1;marginBottom=0;whiteSpace=wrap;html=1;" parent="WIyWlLk6GJQsqaUBKTNV-1" vertex="1">
          <mxGeometry x="827" y="690" width="140" height="52" as="geometry" />
        </mxCell>
        <mxCell id="0VNFJHsK7VzZ3nX6VxYS-58" value="Instructor" style="swimlane;fontStyle=0;childLayout=stackLayout;horizontal=1;startSize=26;fillColor=none;horizontalStack=0;resizeParent=1;resizeParentMax=0;resizeLast=0;collapsible=1;marginBottom=0;whiteSpace=wrap;html=1;" parent="WIyWlLk6GJQsqaUBKTNV-1" vertex="1">
          <mxGeometry x="490" y="820" width="140" height="52" as="geometry" />
        </mxCell>
        <mxCell id="0VNFJHsK7VzZ3nX6VxYS-59" value="specialization" style="text;strokeColor=none;fillColor=none;align=left;verticalAlign=top;spacingLeft=4;spacingRight=4;overflow=hidden;rotatable=0;points=[[0,0.5],[1,0.5]];portConstraint=eastwest;whiteSpace=wrap;html=1;" parent="0VNFJHsK7VzZ3nX6VxYS-58" vertex="1">
          <mxGeometry y="26" width="140" height="26" as="geometry" />
        </mxCell>
        <mxCell id="0VNFJHsK7VzZ3nX6VxYS-62" value="" style="endArrow=block;endSize=16;endFill=0;html=1;rounded=0;exitX=1;exitY=0.5;exitDx=0;exitDy=0;entryX=0;entryY=0.5;entryDx=0;entryDy=0;" parent="WIyWlLk6GJQsqaUBKTNV-1" source="0VNFJHsK7VzZ3nX6VxYS-59" target="0VNFJHsK7VzZ3nX6VxYS-41" edge="1">
          <mxGeometry width="160" relative="1" as="geometry">
            <mxPoint x="630" y="885" as="sourcePoint" />
            <mxPoint x="810" y="870" as="targetPoint" />
          </mxGeometry>
        </mxCell>
        <mxCell id="0VNFJHsK7VzZ3nX6VxYS-63" value="Administrator" style="swimlane;fontStyle=0;childLayout=stackLayout;horizontal=1;startSize=26;fillColor=none;horizontalStack=0;resizeParent=1;resizeParentMax=0;resizeLast=0;collapsible=1;marginBottom=0;whiteSpace=wrap;html=1;" parent="WIyWlLk6GJQsqaUBKTNV-1" vertex="1">
          <mxGeometry x="1160" y="820" width="140" height="52" as="geometry" />
        </mxCell>
        <mxCell id="0VNFJHsK7VzZ3nX6VxYS-67" value="" style="endArrow=block;endSize=16;endFill=0;html=1;rounded=0;exitX=0;exitY=0.75;exitDx=0;exitDy=0;entryX=1;entryY=0.5;entryDx=0;entryDy=0;" parent="WIyWlLk6GJQsqaUBKTNV-1" source="0VNFJHsK7VzZ3nX6VxYS-63" target="0VNFJHsK7VzZ3nX6VxYS-41" edge="1">
          <mxGeometry width="160" relative="1" as="geometry">
            <mxPoint x="1120" y="860" as="sourcePoint" />
            <mxPoint x="1020" y="860" as="targetPoint" />
          </mxGeometry>
        </mxCell>
        <mxCell id="0VNFJHsK7VzZ3nX6VxYS-69" value="" style="endArrow=none;html=1;rounded=0;entryX=0.407;entryY=1;entryDx=0;entryDy=0;entryPerimeter=0;exitX=0;exitY=0.5;exitDx=0;exitDy=0;" parent="WIyWlLk6GJQsqaUBKTNV-1" source="0VNFJHsK7VzZ3nX6VxYS-59" target="0VNFJHsK7VzZ3nX6VxYS-2" edge="1">
          <mxGeometry width="50" height="50" relative="1" as="geometry">
            <mxPoint x="410.98" y="744.5" as="sourcePoint" />
            <mxPoint x="409.02" y="567.492" as="targetPoint" />
          </mxGeometry>
        </mxCell>
        <mxCell id="0VNFJHsK7VzZ3nX6VxYS-70" value="available in" style="text;html=1;align=center;verticalAlign=middle;resizable=0;points=[];autosize=1;strokeColor=none;fillColor=none;rotation=0;" parent="WIyWlLk6GJQsqaUBKTNV-1" vertex="1">
          <mxGeometry x="440" y="630" width="80" height="30" as="geometry" />
        </mxCell>
        <mxCell id="0VNFJHsK7VzZ3nX6VxYS-71" value="1..*" style="text;html=1;align=center;verticalAlign=middle;resizable=0;points=[];autosize=1;strokeColor=none;fillColor=none;" parent="WIyWlLk6GJQsqaUBKTNV-1" vertex="1">
          <mxGeometry x="400" y="488" width="40" height="30" as="geometry" />
        </mxCell>
        <mxCell id="0VNFJHsK7VzZ3nX6VxYS-72" value="" style="endArrow=none;html=1;rounded=0;entryX=0.269;entryY=1;entryDx=0;entryDy=0;entryPerimeter=0;exitX=0.5;exitY=0;exitDx=0;exitDy=0;" parent="WIyWlLk6GJQsqaUBKTNV-1" source="0VNFJHsK7VzZ3nX6VxYS-58" target="0VNFJHsK7VzZ3nX6VxYS-36" edge="1">
          <mxGeometry width="50" height="50" relative="1" as="geometry">
            <mxPoint x="590" y="760" as="sourcePoint" />
            <mxPoint x="620" y="690" as="targetPoint" />
          </mxGeometry>
        </mxCell>
        <mxCell id="0VNFJHsK7VzZ3nX6VxYS-73" value="0..*" style="text;html=1;align=center;verticalAlign=middle;resizable=0;points=[];autosize=1;strokeColor=none;fillColor=none;" parent="WIyWlLk6GJQsqaUBKTNV-1" vertex="1">
          <mxGeometry x="630" y="534" width="40" height="30" as="geometry" />
        </mxCell>
        <mxCell id="0VNFJHsK7VzZ3nX6VxYS-74" value="Booking" style="swimlane;fontStyle=0;childLayout=stackLayout;horizontal=1;startSize=26;fillColor=none;horizontalStack=0;resizeParent=1;resizeParentMax=0;resizeLast=0;collapsible=1;marginBottom=0;whiteSpace=wrap;html=1;" parent="WIyWlLk6GJQsqaUBKTNV-1" vertex="1">
          <mxGeometry x="827" y="456" width="140" height="52" as="geometry" />
        </mxCell>
        <mxCell id="0VNFJHsK7VzZ3nX6VxYS-75" value="booking_date" style="text;strokeColor=none;fillColor=none;align=left;verticalAlign=top;spacingLeft=4;spacingRight=4;overflow=hidden;rotatable=0;points=[[0,0.5],[1,0.5]];portConstraint=eastwest;whiteSpace=wrap;html=1;" parent="0VNFJHsK7VzZ3nX6VxYS-74" vertex="1">
          <mxGeometry y="26" width="140" height="26" as="geometry" />
        </mxCell>
        <mxCell id="0VNFJHsK7VzZ3nX6VxYS-78" value="" style="endArrow=none;html=1;rounded=0;exitX=0.5;exitY=0;exitDx=0;exitDy=0;entryX=0.479;entryY=1;entryDx=0;entryDy=0;entryPerimeter=0;" parent="WIyWlLk6GJQsqaUBKTNV-1" source="0VNFJHsK7VzZ3nX6VxYS-54" target="0VNFJHsK7VzZ3nX6VxYS-75" edge="1">
          <mxGeometry width="50" height="50" relative="1" as="geometry">
            <mxPoint x="890" y="660" as="sourcePoint" />
            <mxPoint x="896.02" y="534" as="targetPoint" />
          </mxGeometry>
        </mxCell>
        <mxCell id="0VNFJHsK7VzZ3nX6VxYS-79" value="0..*" style="text;html=1;align=center;verticalAlign=middle;resizable=0;points=[];autosize=1;strokeColor=none;fillColor=none;" parent="WIyWlLk6GJQsqaUBKTNV-1" vertex="1">
          <mxGeometry x="900" y="508" width="40" height="30" as="geometry" />
        </mxCell>
        <mxCell id="0VNFJHsK7VzZ3nX6VxYS-80" value="" style="endArrow=none;html=1;rounded=0;exitX=1;exitY=0.231;exitDx=0;exitDy=0;exitPerimeter=0;" parent="WIyWlLk6GJQsqaUBKTNV-1" source="0VNFJHsK7VzZ3nX6VxYS-35" edge="1">
          <mxGeometry width="50" height="50" relative="1" as="geometry">
            <mxPoint x="790" y="490" as="sourcePoint" />
            <mxPoint x="827" y="488" as="targetPoint" />
          </mxGeometry>
        </mxCell>
        <mxCell id="0VNFJHsK7VzZ3nX6VxYS-81" value="Guardian" style="swimlane;fontStyle=0;childLayout=stackLayout;horizontal=1;startSize=26;fillColor=none;horizontalStack=0;resizeParent=1;resizeParentMax=0;resizeLast=0;collapsible=1;marginBottom=0;whiteSpace=wrap;html=1;" parent="WIyWlLk6GJQsqaUBKTNV-1" vertex="1">
          <mxGeometry x="1090" y="690" width="140" height="52" as="geometry" />
        </mxCell>
        <mxCell id="0VNFJHsK7VzZ3nX6VxYS-85" value="" style="endArrow=block;endSize=16;endFill=0;html=1;rounded=0;entryX=1;entryY=0;entryDx=0;entryDy=0;exitX=0;exitY=0.5;exitDx=0;exitDy=0;" parent="WIyWlLk6GJQsqaUBKTNV-1" source="0VNFJHsK7VzZ3nX6VxYS-81" target="0VNFJHsK7VzZ3nX6VxYS-40" edge="1">
          <mxGeometry width="160" relative="1" as="geometry">
            <mxPoint x="1050" y="742" as="sourcePoint" />
            <mxPoint x="1010" y="792" as="targetPoint" />
          </mxGeometry>
        </mxCell>
        <mxCell id="0VNFJHsK7VzZ3nX6VxYS-87" value="&lt;font style=&quot;font-size: 14px;&quot;&gt;{client_age &amp;lt; 18}&lt;/font&gt;" style="text;html=1;align=center;verticalAlign=middle;resizable=0;points=[];autosize=1;strokeColor=none;fillColor=none;" parent="WIyWlLk6GJQsqaUBKTNV-1" vertex="1">
          <mxGeometry x="960" y="670" width="130" height="30" as="geometry" />
        </mxCell>
        <mxCell id="0VNFJHsK7VzZ3nX6VxYS-88" value="" style="endArrow=none;html=1;rounded=0;exitX=0.5;exitY=0;exitDx=0;exitDy=0;entryX=1;entryY=0.5;entryDx=0;entryDy=0;" parent="WIyWlLk6GJQsqaUBKTNV-1" source="0VNFJHsK7VzZ3nX6VxYS-81" target="0VNFJHsK7VzZ3nX6VxYS-75" edge="1">
          <mxGeometry width="50" height="50" relative="1" as="geometry">
            <mxPoint x="1130" y="640" as="sourcePoint" />
            <mxPoint x="1180" y="590" as="targetPoint" />
          </mxGeometry>
        </mxCell>
        <mxCell id="0VNFJHsK7VzZ3nX6VxYS-89" value="0..*" style="text;html=1;align=center;verticalAlign=middle;resizable=0;points=[];autosize=1;strokeColor=none;fillColor=none;" parent="WIyWlLk6GJQsqaUBKTNV-1" vertex="1">
          <mxGeometry x="985" y="488" width="40" height="30" as="geometry" />
        </mxCell>
        <mxCell id="0VNFJHsK7VzZ3nX6VxYS-90" value="OfferingDB" style="swimlane;fontStyle=0;childLayout=stackLayout;horizontal=1;startSize=26;fillColor=none;horizontalStack=0;resizeParent=1;resizeParentMax=0;resizeLast=0;collapsible=1;marginBottom=0;whiteSpace=wrap;html=1;" parent="WIyWlLk6GJQsqaUBKTNV-1" vertex="1">
          <mxGeometry x="955" y="270" width="140" height="52" as="geometry" />
        </mxCell>
        <mxCell id="0VNFJHsK7VzZ3nX6VxYS-94" value="" style="endArrow=diamondThin;endFill=1;endSize=24;html=1;rounded=0;exitX=0.55;exitY=0.5;exitDx=0;exitDy=0;entryX=0.55;entryY=0;entryDx=0;entryDy=0;entryPerimeter=0;exitPerimeter=0;" parent="WIyWlLk6GJQsqaUBKTNV-1" source="V79sY7FyTPK6DOJUgLWL-5" target="V79sY7FyTPK6DOJUgLWL-8" edge="1">
          <mxGeometry width="160" relative="1" as="geometry">
            <mxPoint x="780" y="370" as="sourcePoint" />
            <mxPoint x="940" y="370" as="targetPoint" />
          </mxGeometry>
        </mxCell>
        <mxCell id="0VNFJHsK7VzZ3nX6VxYS-95" value="&lt;font style=&quot;font-size: 14px;&quot;&gt;*&lt;/font&gt;" style="text;html=1;align=center;verticalAlign=middle;resizable=0;points=[];autosize=1;strokeColor=none;fillColor=none;" parent="WIyWlLk6GJQsqaUBKTNV-1" vertex="1">
          <mxGeometry x="760" y="400" width="30" height="30" as="geometry" />
        </mxCell>
        <mxCell id="0VNFJHsK7VzZ3nX6VxYS-97" value="BookingDB" style="swimlane;fontStyle=0;childLayout=stackLayout;horizontal=1;startSize=26;fillColor=none;horizontalStack=0;resizeParent=1;resizeParentMax=0;resizeLast=0;collapsible=1;marginBottom=0;whiteSpace=wrap;html=1;" parent="WIyWlLk6GJQsqaUBKTNV-1" vertex="1">
          <mxGeometry x="1150" y="456" width="140" height="52" as="geometry" />
        </mxCell>
        <mxCell id="0VNFJHsK7VzZ3nX6VxYS-102" value="" style="endArrow=diamondThin;endFill=1;endSize=24;html=1;rounded=0;entryX=0;entryY=0.5;entryDx=0;entryDy=0;exitX=1;exitY=0.5;exitDx=0;exitDy=0;" parent="WIyWlLk6GJQsqaUBKTNV-1" source="0VNFJHsK7VzZ3nX6VxYS-74" target="0VNFJHsK7VzZ3nX6VxYS-97" edge="1">
          <mxGeometry width="160" relative="1" as="geometry">
            <mxPoint x="970" y="480" as="sourcePoint" />
            <mxPoint x="1130" y="480" as="targetPoint" />
          </mxGeometry>
        </mxCell>
        <mxCell id="0VNFJHsK7VzZ3nX6VxYS-103" value="&lt;font style=&quot;font-size: 14px;&quot;&gt;*&lt;/font&gt;" style="text;html=1;align=center;verticalAlign=middle;resizable=0;points=[];autosize=1;strokeColor=none;fillColor=none;" parent="WIyWlLk6GJQsqaUBKTNV-1" vertex="1">
          <mxGeometry x="970" y="456" width="30" height="30" as="geometry" />
        </mxCell>
        <mxCell id="0VNFJHsK7VzZ3nX6VxYS-105" value="LocationDB" style="swimlane;fontStyle=0;childLayout=stackLayout;horizontal=1;startSize=26;fillColor=none;horizontalStack=0;resizeParent=1;resizeParentMax=0;resizeLast=0;collapsible=1;marginBottom=0;whiteSpace=wrap;html=1;" parent="WIyWlLk6GJQsqaUBKTNV-1" vertex="1">
          <mxGeometry x="40" y="350" width="140" height="52" as="geometry" />
        </mxCell>
        <mxCell id="0VNFJHsK7VzZ3nX6VxYS-109" value="" style="endArrow=diamondThin;endFill=1;endSize=24;html=1;rounded=0;exitX=0;exitY=0.5;exitDx=0;exitDy=0;entryX=1;entryY=0.75;entryDx=0;entryDy=0;" parent="WIyWlLk6GJQsqaUBKTNV-1" source="0VNFJHsK7VzZ3nX6VxYS-1" target="0VNFJHsK7VzZ3nX6VxYS-105" edge="1">
          <mxGeometry width="160" relative="1" as="geometry">
            <mxPoint x="290" y="375.5" as="sourcePoint" />
            <mxPoint x="210" y="375.5" as="targetPoint" />
          </mxGeometry>
        </mxCell>
        <mxCell id="0VNFJHsK7VzZ3nX6VxYS-110" value="&lt;font style=&quot;font-size: 14px;&quot;&gt;*&lt;/font&gt;" style="text;html=1;align=center;verticalAlign=middle;resizable=0;points=[];autosize=1;strokeColor=none;fillColor=none;" parent="WIyWlLk6GJQsqaUBKTNV-1" vertex="1">
          <mxGeometry x="310" y="361" width="30" height="30" as="geometry" />
        </mxCell>
        <mxCell id="0VNFJHsK7VzZ3nX6VxYS-111" value="" style="endArrow=none;html=1;rounded=0;entryX=0.5;entryY=1;entryDx=0;entryDy=0;" parent="WIyWlLk6GJQsqaUBKTNV-1" target="0VNFJHsK7VzZ3nX6VxYS-63" edge="1">
          <mxGeometry width="50" height="50" relative="1" as="geometry">
            <mxPoint x="1230" y="1061" as="sourcePoint" />
            <mxPoint x="1240" y="900" as="targetPoint" />
          </mxGeometry>
        </mxCell>
        <mxCell id="0VNFJHsK7VzZ3nX6VxYS-113" value="" style="endArrow=none;html=1;rounded=0;" parent="WIyWlLk6GJQsqaUBKTNV-1" edge="1">
          <mxGeometry width="50" height="50" relative="1" as="geometry">
            <mxPoint x="110" y="1060" as="sourcePoint" />
            <mxPoint x="1230" y="1060" as="targetPoint" />
          </mxGeometry>
        </mxCell>
        <mxCell id="0VNFJHsK7VzZ3nX6VxYS-114" value="" style="endArrow=none;html=1;rounded=0;entryX=0.5;entryY=1;entryDx=0;entryDy=0;" parent="WIyWlLk6GJQsqaUBKTNV-1" target="0VNFJHsK7VzZ3nX6VxYS-105" edge="1">
          <mxGeometry width="50" height="50" relative="1" as="geometry">
            <mxPoint x="110" y="1060" as="sourcePoint" />
            <mxPoint x="140" y="890" as="targetPoint" />
          </mxGeometry>
        </mxCell>
        <mxCell id="0VNFJHsK7VzZ3nX6VxYS-115" value="" style="endArrow=none;html=1;rounded=0;exitX=1;exitY=0.5;exitDx=0;exitDy=0;" parent="WIyWlLk6GJQsqaUBKTNV-1" source="0VNFJHsK7VzZ3nX6VxYS-63" edge="1">
          <mxGeometry width="50" height="50" relative="1" as="geometry">
            <mxPoint x="1380" y="870" as="sourcePoint" />
            <mxPoint x="1580" y="846" as="targetPoint" />
          </mxGeometry>
        </mxCell>
        <mxCell id="0VNFJHsK7VzZ3nX6VxYS-117" value="" style="endArrow=none;html=1;rounded=0;" parent="WIyWlLk6GJQsqaUBKTNV-1" edge="1">
          <mxGeometry width="50" height="50" relative="1" as="geometry">
            <mxPoint x="1580" y="850" as="sourcePoint" />
            <mxPoint x="1570" y="50" as="targetPoint" />
          </mxGeometry>
        </mxCell>
        <mxCell id="0VNFJHsK7VzZ3nX6VxYS-118" value="" style="endArrow=none;html=1;rounded=0;" parent="WIyWlLk6GJQsqaUBKTNV-1" edge="1">
          <mxGeometry width="50" height="50" relative="1" as="geometry">
            <mxPoint x="120" y="50" as="sourcePoint" />
            <mxPoint x="1570" y="50" as="targetPoint" />
          </mxGeometry>
        </mxCell>
        <mxCell id="0VNFJHsK7VzZ3nX6VxYS-119" value="" style="endArrow=none;html=1;rounded=0;exitX=0.5;exitY=0;exitDx=0;exitDy=0;" parent="WIyWlLk6GJQsqaUBKTNV-1" source="0VNFJHsK7VzZ3nX6VxYS-25" edge="1">
          <mxGeometry width="50" height="50" relative="1" as="geometry">
            <mxPoint x="70" y="100" as="sourcePoint" />
            <mxPoint x="120" y="50" as="targetPoint" />
          </mxGeometry>
        </mxCell>
        <mxCell id="0VNFJHsK7VzZ3nX6VxYS-120" value="" style="endArrow=none;html=1;rounded=0;exitX=0.75;exitY=0;exitDx=0;exitDy=0;" parent="WIyWlLk6GJQsqaUBKTNV-1" source="0VNFJHsK7VzZ3nX6VxYS-63" edge="1">
          <mxGeometry width="50" height="50" relative="1" as="geometry">
            <mxPoint x="1290" y="720" as="sourcePoint" />
            <mxPoint x="1260" y="510" as="targetPoint" />
          </mxGeometry>
        </mxCell>
        <mxCell id="0VNFJHsK7VzZ3nX6VxYS-121" value="" style="endArrow=none;html=1;rounded=0;exitX=1;exitY=0.25;exitDx=0;exitDy=0;" parent="WIyWlLk6GJQsqaUBKTNV-1" source="0VNFJHsK7VzZ3nX6VxYS-63" edge="1">
          <mxGeometry width="50" height="50" relative="1" as="geometry">
            <mxPoint x="1340" y="810" as="sourcePoint" />
            <mxPoint x="1410" y="833" as="targetPoint" />
          </mxGeometry>
        </mxCell>
        <mxCell id="0VNFJHsK7VzZ3nX6VxYS-122" value="" style="endArrow=none;html=1;rounded=0;" parent="WIyWlLk6GJQsqaUBKTNV-1" edge="1">
          <mxGeometry width="50" height="50" relative="1" as="geometry">
            <mxPoint x="1410" y="830" as="sourcePoint" />
            <mxPoint x="1400" y="290" as="targetPoint" />
          </mxGeometry>
        </mxCell>
        <mxCell id="0VNFJHsK7VzZ3nX6VxYS-123" value="" style="endArrow=none;html=1;rounded=0;exitX=1;exitY=0.5;exitDx=0;exitDy=0;" parent="WIyWlLk6GJQsqaUBKTNV-1" source="0VNFJHsK7VzZ3nX6VxYS-90" edge="1">
          <mxGeometry width="50" height="50" relative="1" as="geometry">
            <mxPoint x="1270" y="340" as="sourcePoint" />
            <mxPoint x="1400" y="290" as="targetPoint" />
          </mxGeometry>
        </mxCell>
        <mxCell id="0VNFJHsK7VzZ3nX6VxYS-125" value="" style="endArrow=none;html=1;rounded=0;entryX=0.979;entryY=0.846;entryDx=0;entryDy=0;exitX=0;exitY=0.5;exitDx=0;exitDy=0;entryPerimeter=0;" parent="WIyWlLk6GJQsqaUBKTNV-1" source="0VNFJHsK7VzZ3nX6VxYS-54" target="0VNFJHsK7VzZ3nX6VxYS-36" edge="1">
          <mxGeometry width="50" height="50" relative="1" as="geometry">
            <mxPoint x="760" y="650" as="sourcePoint" />
            <mxPoint x="810" y="600" as="targetPoint" />
          </mxGeometry>
        </mxCell>
        <mxCell id="0VNFJHsK7VzZ3nX6VxYS-126" value="0..*" style="text;html=1;align=center;verticalAlign=middle;resizable=0;points=[];autosize=1;strokeColor=none;fillColor=none;" parent="WIyWlLk6GJQsqaUBKTNV-1" vertex="1">
          <mxGeometry x="770" y="518" width="40" height="30" as="geometry" />
        </mxCell>
        <mxCell id="0VNFJHsK7VzZ3nX6VxYS-127" value="views instructor available" style="text;html=1;align=center;verticalAlign=middle;resizable=0;points=[];autosize=1;strokeColor=none;fillColor=none;rotation=-70;" parent="WIyWlLk6GJQsqaUBKTNV-1" vertex="1">
          <mxGeometry x="510" y="682" width="160" height="30" as="geometry" />
        </mxCell>
        <mxCell id="0VNFJHsK7VzZ3nX6VxYS-128" value="views available" style="text;html=1;align=center;verticalAlign=middle;resizable=0;points=[];autosize=1;strokeColor=none;fillColor=none;" parent="WIyWlLk6GJQsqaUBKTNV-1" vertex="1">
          <mxGeometry x="750" y="558" width="100" height="30" as="geometry" />
        </mxCell>
        <mxCell id="0VNFJHsK7VzZ3nX6VxYS-129" value="makes" style="text;html=1;align=center;verticalAlign=middle;resizable=0;points=[];autosize=1;strokeColor=none;fillColor=none;" parent="WIyWlLk6GJQsqaUBKTNV-1" vertex="1">
          <mxGeometry x="890" y="600" width="60" height="30" as="geometry" />
        </mxCell>
        <mxCell id="0VNFJHsK7VzZ3nX6VxYS-130" value="makes" style="text;html=1;align=center;verticalAlign=middle;resizable=0;points=[];autosize=1;strokeColor=none;fillColor=none;" parent="WIyWlLk6GJQsqaUBKTNV-1" vertex="1">
          <mxGeometry x="1080" y="588" width="60" height="30" as="geometry" />
        </mxCell>
        <mxCell id="V79sY7FyTPK6DOJUgLWL-2" value="Lesson" style="swimlane;fontStyle=0;childLayout=stackLayout;horizontal=1;startSize=26;fillColor=none;horizontalStack=0;resizeParent=1;resizeParentMax=0;resizeLast=0;collapsible=1;marginBottom=0;whiteSpace=wrap;html=1;" parent="WIyWlLk6GJQsqaUBKTNV-1" vertex="1">
          <mxGeometry x="640" y="600" width="140" height="82" as="geometry" />
        </mxCell>
        <mxCell id="V79sY7FyTPK6DOJUgLWL-3" value="is_group" style="text;strokeColor=none;fillColor=none;align=left;verticalAlign=top;spacingLeft=4;spacingRight=4;overflow=hidden;rotatable=0;points=[[0,0.5],[1,0.5]];portConstraint=eastwest;whiteSpace=wrap;html=1;" parent="V79sY7FyTPK6DOJUgLWL-2" vertex="1">
          <mxGeometry y="26" width="140" height="26" as="geometry" />
        </mxCell>
        <mxCell id="V79sY7FyTPK6DOJUgLWL-4" value="name" style="text;strokeColor=none;fillColor=none;align=left;verticalAlign=top;spacingLeft=4;spacingRight=4;overflow=hidden;rotatable=0;points=[[0,0.5],[1,0.5]];portConstraint=eastwest;whiteSpace=wrap;html=1;" parent="V79sY7FyTPK6DOJUgLWL-2" vertex="1">
          <mxGeometry y="52" width="140" height="28" as="geometry" />
        </mxCell>
        <mxCell id="V79sY7FyTPK6DOJUgLWL-5" value="+ field: type" style="text;strokeColor=none;fillColor=none;align=left;verticalAlign=top;spacingLeft=4;spacingRight=4;overflow=hidden;rotatable=0;points=[[0,0.5],[1,0.5]];portConstraint=eastwest;whiteSpace=wrap;html=1;" parent="V79sY7FyTPK6DOJUgLWL-2" vertex="1">
          <mxGeometry y="80" width="140" height="2" as="geometry" />
        </mxCell>
        <mxCell id="V79sY7FyTPK6DOJUgLWL-6" value="" style="endArrow=none;html=1;rounded=0;entryX=0.5;entryY=1.077;entryDx=0;entryDy=0;entryPerimeter=0;exitX=0.457;exitY=0.012;exitDx=0;exitDy=0;exitPerimeter=0;" parent="WIyWlLk6GJQsqaUBKTNV-1" source="V79sY7FyTPK6DOJUgLWL-2" target="0VNFJHsK7VzZ3nX6VxYS-36" edge="1">
          <mxGeometry width="50" height="50" relative="1" as="geometry">
            <mxPoint x="700" y="630" as="sourcePoint" />
            <mxPoint x="750" y="580" as="targetPoint" />
          </mxGeometry>
        </mxCell>
        <mxCell id="V79sY7FyTPK6DOJUgLWL-8" value="LessonDB" style="swimlane;fontStyle=0;childLayout=stackLayout;horizontal=1;startSize=26;fillColor=none;horizontalStack=0;resizeParent=1;resizeParentMax=0;resizeLast=0;collapsible=1;marginBottom=0;whiteSpace=wrap;html=1;" parent="WIyWlLk6GJQsqaUBKTNV-1" vertex="1">
          <mxGeometry x="640" y="730" width="140" height="52" as="geometry" />
        </mxCell>
        <mxCell id="V79sY7FyTPK6DOJUgLWL-10" value="&lt;font style=&quot;font-size: 14px;&quot;&gt;*&lt;/font&gt;" style="text;html=1;align=center;verticalAlign=middle;resizable=0;points=[];autosize=1;strokeColor=none;fillColor=none;" parent="WIyWlLk6GJQsqaUBKTNV-1" vertex="1">
          <mxGeometry x="685" y="682" width="30" height="30" as="geometry" />
        </mxCell>
        <mxCell id="V79sY7FyTPK6DOJUgLWL-11" value="" style="endArrow=none;html=1;rounded=0;entryX=0.5;entryY=1;entryDx=0;entryDy=0;exitX=0.25;exitY=1;exitDx=0;exitDy=0;" parent="WIyWlLk6GJQsqaUBKTNV-1" source="0VNFJHsK7VzZ3nX6VxYS-63" target="V79sY7FyTPK6DOJUgLWL-8" edge="1">
          <mxGeometry width="50" height="50" relative="1" as="geometry">
            <mxPoint x="700" y="830" as="sourcePoint" />
            <mxPoint x="750" y="780" as="targetPoint" />
            <Array as="points">
              <mxPoint x="1195" y="1010" />
              <mxPoint x="710" y="1010" />
            </Array>
          </mxGeometry>
        </mxCell>
        <mxCell id="V79sY7FyTPK6DOJUgLWL-12" value="" style="endArrow=none;html=1;rounded=0;exitX=1;exitY=0;exitDx=0;exitDy=0;entryX=0;entryY=1;entryDx=0;entryDy=0;" parent="WIyWlLk6GJQsqaUBKTNV-1" source="0VNFJHsK7VzZ3nX6VxYS-33" target="0VNFJHsK7VzZ3nX6VxYS-90" edge="1">
          <mxGeometry width="50" height="50" relative="1" as="geometry">
            <mxPoint x="907" y="700" as="sourcePoint" />
            <mxPoint x="904" y="518" as="targetPoint" />
          </mxGeometry>
        </mxCell>
        <mxCell id="pzcK3rzdxGb1LK8XV4PF-1" value="" style="endArrow=none;html=1;rounded=0;exitX=0;exitY=0;exitDx=0;exitDy=0;entryX=1;entryY=0.5;entryDx=0;entryDy=0;" edge="1" parent="WIyWlLk6GJQsqaUBKTNV-1" source="0VNFJHsK7VzZ3nX6VxYS-18" target="0VNFJHsK7VzZ3nX6VxYS-5">
          <mxGeometry width="50" height="50" relative="1" as="geometry">
            <mxPoint x="420" y="360" as="sourcePoint" />
            <mxPoint x="420" y="230" as="targetPoint" />
          </mxGeometry>
        </mxCell>
      </root>
    </mxGraphModel>
  </diagram>
</mxfile>
